<?xml version="1.0" encoding="utf-8"?>
<!-- Generator: Adobe Illustrator 22.1.0, SVG Export Plug-In . SVG Version: 6.00 Build 0)  -->
<svg version="1.1" xmlns="http://www.w3.org/2000/svg" xmlns:xlink="http://www.w3.org/1999/xlink" x="0px" y="0px"
	 viewBox="0 0 612 612" style="enable-background:new 0 0 612 612;" xml:space="preserve">
<style type="text/css">
	.st0{fill:#FFAC1D;}
</style>
<g id="Capa_1">
</g>
<g id="Layer_2">
	<path d="M523.2,268.4c-1.5-2-3.5-3.2-6-3.6l-52.2-8c-2.9-9.1-6.8-18.5-11.7-28c3.4-4.8,8.6-11.5,15.4-20.1c6.9-8.7,11.7-15,14.6-19
		c1.5-2.1,2.3-4.3,2.3-6.6c0-2.7-0.7-4.8-2-6.3c-6.8-9.7-22.6-25.9-47.1-48.5c-2.3-1.9-4.7-2.9-7.1-2.9c-2.9,0-5.1,0.9-6.9,2.6
		l-40.5,30.5c-7.8-4-16.4-7.5-25.7-10.6l-8-52.5c-0.2-2.5-1.3-4.5-3.3-6.1c-2-1.6-4.3-2.4-7-2.4h-63.4c-5.5,0-8.9,2.7-10.3,8
		c-2.5,9.5-5.2,27.2-8.3,53.1c-8.9,2.9-17.6,6.5-26,10.9l-39.4-30.5c-2.5-1.9-4.9-2.9-7.4-2.9c-4.2,0-13.2,6.8-27,20.4
		c-13.8,13.6-23.2,23.8-28.1,30.7c-1.7,2.5-2.6,4.7-2.6,6.6c0,2.3,0.9,4.6,2.9,6.9c12.8,15.4,22.9,28.5,30.6,39.4
		c-4.8,8.8-8.5,17.5-11.1,26.3l-53.1,8c-2.1,0.4-3.9,1.6-5.4,3.7c-1.5,2.1-2.3,4.3-2.3,6.6v63.4c0,2.5,0.8,4.7,2.3,6.7
		c1.5,2,3.5,3.2,6,3.6l52.2,7.7c2.7,9.3,6.6,18.7,11.7,28.3c-3.4,4.8-8.6,11.5-15.4,20.1c-6.9,8.7-11.7,15-14.6,19
		c-1.5,2.1-2.3,4.3-2.3,6.6c0,2.5,0.7,4.7,2,6.6c7.4,10.3,23.1,26.3,47.1,48c2.1,2.1,4.5,3.1,7.1,3.1c2.9,0,5.2-0.9,7.1-2.6
		l40.3-30.6c7.8,4,16.4,7.5,25.7,10.6l8,52.5c0.2,2.5,1.3,4.5,3.3,6.1c2,1.6,4.3,2.4,7,2.4H338c5.5,0,9-2.7,10.3-8
		c2.5-9.5,5.2-27.2,8.3-53.1c8.9-2.9,17.6-6.5,26-10.9l39.4,30.8c2.7,1.7,5.1,2.6,7.4,2.6c4.2,0,13.1-6.8,26.8-20.3
		c13.7-13.5,23.1-23.8,28.3-30.8c1.7-1.9,2.6-4.1,2.6-6.6c0-2.5-0.9-4.9-2.9-7.1c-13.7-16.8-23.9-29.9-30.5-39.4
		c3.8-7,7.5-15.7,11.1-26l52.8-8c2.3-0.4,4.2-1.6,5.7-3.7c1.5-2.1,2.3-4.3,2.3-6.6v-63.4C525.5,272.7,524.8,270.4,523.2,268.4z
		 M357.9,357.9c-14.3,14.3-31.5,21.4-51.7,21.4c-20.2,0-37.4-7.1-51.7-21.4c-14.3-14.3-21.4-31.5-21.4-51.7
		c0-20.2,7.1-37.4,21.4-51.7c14.3-14.3,31.5-21.4,51.7-21.4c20.2,0,37.4,7.1,51.7,21.4c14.3,14.3,21.4,31.5,21.4,51.7
		C379.4,326.4,372.2,343.7,357.9,357.9z"/>
	<path class="st0" d="M523.2,268.4c-1.5-2-3.5-3.2-6-3.6l-52.2-8c-2.9-9.1-6.8-18.5-11.7-28c3.4-4.8,8.6-11.5,15.4-20.1
		c6.9-8.7,11.7-15,14.6-19c1.5-2.1,2.3-4.3,2.3-6.6c0-2.7-0.7-4.8-2-6.3c-6.8-9.7-22.6-25.9-47.1-48.5c-2.3-1.9-4.7-2.9-7.1-2.9
		c-2.9,0-5.1,0.9-6.9,2.6l-40.5,30.5c-7.8-4-16.4-7.5-25.7-10.6l-8-52.5c-0.2-2.5-1.3-4.5-3.3-6.1c-2-1.6-4.3-2.4-7-2.4h-63.4
		c-5.5,0-8.9,2.7-10.3,8c-2.5,9.5-5.2,27.2-8.3,53.1c-8.9,2.9-17.6,6.5-26,10.9l-39.4-30.5c-2.5-1.9-4.9-2.9-7.4-2.9
		c-4.2,0-13.2,6.8-27,20.4c-13.8,13.6-23.2,23.8-28.1,30.7c-1.7,2.5-2.6,4.7-2.6,6.6c0,2.3,0.9,4.6,2.9,6.9
		c12.8,15.4,22.9,28.5,30.6,39.4c-4.8,8.8-8.5,17.5-11.1,26.3l-53.1,8c-2.1,0.4-3.9,1.6-5.4,3.7c-1.5,2.1-2.3,4.3-2.3,6.6v63.4
		c0,2.5,0.8,4.7,2.3,6.7c1.5,2,3.5,3.2,6,3.6l52.2,7.7c2.7,9.3,6.6,18.7,11.7,28.3c-3.4,4.8-8.6,11.5-15.4,20.1
		c-6.9,8.7-11.7,15-14.6,19c-1.5,2.1-2.3,4.3-2.3,6.6c0,2.5,0.7,4.7,2,6.6c7.4,10.3,23.1,26.3,47.1,48c2.1,2.1,4.5,3.1,7.1,3.1
		c2.9,0,5.2-0.9,7.1-2.6l40.3-30.6c7.8,4,16.4,7.5,25.7,10.6l8,52.5c0.2,2.5,1.3,4.5,3.3,6.1c2,1.6,4.3,2.4,7,2.4H338
		c5.5,0,9-2.7,10.3-8c2.5-9.5,5.2-27.2,8.3-53.1c8.9-2.9,17.6-6.5,26-10.9l39.4,30.8c2.7,1.7,5.1,2.6,7.4,2.6
		c4.2,0,13.1-6.8,26.8-20.3c13.7-13.5,23.1-23.8,28.3-30.8c1.7-1.9,2.6-4.1,2.6-6.6c0-2.5-0.9-4.9-2.9-7.1
		c-13.7-16.8-23.9-29.9-30.5-39.4c3.8-7,7.5-15.7,11.1-26l52.8-8c2.3-0.4,4.2-1.6,5.7-3.7c1.5-2.1,2.3-4.3,2.3-6.6v-63.4
		C525.5,272.7,524.8,270.4,523.2,268.4z M357.9,357.9c-14.3,14.3-31.5,21.4-51.7,21.4c-20.2,0-37.4-7.1-51.7-21.4
		c-14.3-14.3-21.4-31.5-21.4-51.7c0-20.2,7.1-37.4,21.4-51.7c14.3-14.3,31.5-21.4,51.7-21.4c20.2,0,37.4,7.1,51.7,21.4
		c14.3,14.3,21.4,31.5,21.4,51.7C379.4,326.4,372.2,343.7,357.9,357.9z"/>
	
		<image style="overflow:visible;" width="5630" height="847" xlink:href="../Downloads/ColorPalette.png"  transform="matrix(0.2119 0 0 0.1071 -449 -117)">
	</image>
</g>
</svg>
