<?xml version="1.0" encoding="utf-8"?>
<!-- Generator: Adobe Illustrator 22.1.0, SVG Export Plug-In . SVG Version: 6.00 Build 0)  -->
<svg version="1.1" id="Layer_1" xmlns="http://www.w3.org/2000/svg" xmlns:xlink="http://www.w3.org/1999/xlink" x="0px" y="0px"
	 viewBox="0 0 612 612" style="enable-background:new 0 0 612 612;" xml:space="preserve">
<style type="text/css">
	.st0{fill:#FFAC1D;}
</style>
<g id="Capa_1">
</g>
<g id="Layer_2_1_">
	
		<image style="overflow:visible;enable-background:new    ;" width="5630" height="847" xlink:href="../Downloads/ColorPalette.png"  transform="matrix(0.2119 0 0 0.1071 -449 -117)">
	</image>
</g>
<path class="st0" d="M230.8,439.2l-101.2-44.5c-18.6-8.2-26.2-27-17-41.7l2.1-3.3c9.3-14.8,32.1-20.1,50.7-12l101.2,44.5
	c18.6,8.2,26.2,27,17,41.7l-2.1,3.3C272.2,442,249.4,447.3,230.8,439.2z"/>
<path class="st0" d="M506.6,193L281.5,430.2c-13.9,14.6-39.6,17.1-57.1,5.5l-3.9-2.6c-17.5-11.6-20.4-33.1-6.5-47.8l225.1-237.1
	c13.9-14.6,39.6-17.1,57.1-5.5l3.9,2.6C517.5,156.9,520.5,178.4,506.6,193z"/>
</svg>
