<?xml version="1.0" encoding="utf-8"?>
<!-- Generator: Adobe Illustrator 22.1.0, SVG Export Plug-In . SVG Version: 6.00 Build 0)  -->
<svg version="1.1" id="Layer_1" xmlns="http://www.w3.org/2000/svg" xmlns:xlink="http://www.w3.org/1999/xlink" x="0px" y="0px"
	 viewBox="0 0 612 612" style="enable-background:new 0 0 612 612;" xml:space="preserve">
<style type="text/css">
	.st0{fill:#FFFFFF;}
</style>
<g id="heads">
	<g id="Capa_1">
	</g>
	<circle class="st0" cx="219.6" cy="243.3" r="33.8"/>
	<ellipse class="st0" cx="303.6" cy="223" rx="43.5" ry="47"/>
	<circle class="st0" cx="386.6" cy="243.3" r="33.8"/>
</g>
<g id="bodies">
	<path class="st0" d="M418.8,286h-2.2h-45.9h-4.9c-3.3,0-6.5,0.9-9.2,2.4c3.4,4.2,5.5,9.5,5.5,15.3V356h1.1v43.5
		c0,4.1,3.4,7.5,7.5,7.5h45.9c4.1,0,7.5-3.4,7.5-7.5V356h6c4.1,0,7.5-3.4,7.5-7.5v-43.7C437.6,294.4,429.2,286,418.8,286z"/>
	<path class="st0" d="M334.9,286h-2.7H278h-5.7c-12.2,0-22.2,10-22.2,22.2v51.7c0,4.9,4,8.9,8.9,8.9h10.2v51.4c0,4.9,4,8.9,8.9,8.9
		h54.2c4.9,0,8.9-4,8.9-8.9v-51.4h7.1c4.9,0,8.9-4,8.9-8.9v-51.7C357.1,295.9,347.2,286,334.9,286z"/>
	<path class="st0" d="M245.1,360.3v-56.6c0-5.8,2.1-11.1,5.5-15.3c-2.7-1.5-5.9-2.4-9.2-2.4h-2.2h-45.9h-4.9
		c-10.3,0-18.7,8.4-18.7,18.7v43.7c0,4.1,3.4,7.5,7.5,7.5h8.6v43.5c0,4.1,3.4,7.5,7.5,7.5h45.9c4.1,0,7.5-3.4,7.5-7.5v-33.9
		C245.7,364,245.1,362.2,245.1,360.3z"/>
</g>
</svg>
