<?xml version="1.0" encoding="utf-8"?>
<!-- Generator: Adobe Illustrator 23.0.3, SVG Export Plug-In . SVG Version: 6.00 Build 0)  -->
<svg version="1.1" id="Layer_1" xmlns="http://www.w3.org/2000/svg" xmlns:xlink="http://www.w3.org/1999/xlink" x="0px" y="0px"
	 viewBox="0 0 1920 1080" style="enable-background:new 0 0 1920 1080;" xml:space="preserve">
<style type="text/css">
	.st0{fill:#F7F6E7;}
	.st1{opacity:0.69;}
	.st2{fill:#DFDDC5;stroke:#FFAC1D;stroke-width:30;stroke-miterlimit:10;}
	.st3{fill:#DF9A21;}
	.st4{fill:#274259;}
	.st5{fill:#9E0020;}
	.st6{fill:#7F3900;}
	.st7{fill:#006A32;}
	.st8{fill:#6A2900;}
	.st9{fill:#383D3B;}
	.st10{opacity:0.54;fill:#383D3B;enable-background:new    ;}
</style>
<rect x="-4.2" class="st0" width="1922.4" height="1080"/>
<g id="Layer_4">
</g>
<g id="Layer_5">
	<g class="st1">
		<path class="st2" d="M1905.3,1067.5H797.8c-6.6,0-12-5.4-12-12v-883c0-6.6,5.4-12,12-12h1107.5c6.6,0,12,5.4,12,12v883
			C1917.3,1062.1,1911.9,1067.5,1905.3,1067.5z"/>
		<path class="st3" d="M1905,321H807.5c-6.6,0-12-5.4-12-12v-5.5c0-6.6,5.4-12,12-12H1905c6.6,0,12,5.4,12,12v5.5
			C1917,315.6,1911.6,321,1905,321z"/>
		<path class="st3" d="M1905,455H807.5c-6.6,0-12-5.4-12-12v-5.5c0-6.6,5.4-12,12-12H1905c6.6,0,12,5.4,12,12v5.5
			C1917,449.6,1911.6,455,1905,455z"/>
		<path class="st3" d="M1900,597H802.5c-6.6,0-12-5.4-12-12v-5.5c0-6.6,5.4-12,12-12H1900c6.6,0,12,5.4,12,12v5.5
			C1912,591.6,1906.6,597,1900,597z"/>
		<path class="st3" d="M1905,761H807.5c-6.6,0-12-5.4-12-12v-5.5c0-6.6,5.4-12,12-12H1905c6.6,0,12,5.4,12,12v5.5
			C1917,755.6,1911.6,761,1905,761z"/>
		<path class="st3" d="M1911,935H813.5c-6.6,0-12-5.4-12-12v-5.5c0-6.6,5.4-12,12-12H1911c6.6,0,12,5.4,12,12v5.5
			C1923,929.6,1917.6,935,1911,935z"/>
		<g>
			<path class="st4" d="M1751,290.6h-9c-6.6,0-12-5.4-12-12v-99.2c0-6.6,5.4-12,12-12h9c6.6,0,12,5.4,12,12v99.2
				C1763,285.2,1757.6,290.6,1751,290.6z"/>
			<rect x="1727.6" y="158" class="st4" width="38.4" height="18.8"/>
			<rect x="1727" y="281.2" class="st4" width="38.4" height="18.8"/>
		</g>
		<g>
			<path class="st4" d="M1355,419.5L1355,419.5c-4.7,0-8.5-3.8-8.5-8.5V343c0-4.6,3.8-8.5,8.5-8.5l0,0c4.7,0,8.5,3.8,8.5,8.5V411
				C1363.5,415.7,1359.7,419.5,1355,419.5z"/>
			<rect x="1345.3" y="328" class="st4" width="19.7" height="13"/>
			<rect x="1345" y="413" class="st4" width="19.7" height="13"/>
		</g>
		<g>
			<path class="st4" d="M1897,564.6h-9c-6.6,0-12-5.4-12-12v-99.2c0-6.6,5.4-12,12-12h9c6.6,0,12,5.4,12,12v99.2
				C1909,559.2,1903.6,564.6,1897,564.6z"/>
			<rect x="1873.6" y="432" class="st4" width="38.4" height="18.8"/>
			<rect x="1873" y="555.2" class="st4" width="38.4" height="18.8"/>
		</g>
		<g>
			<path class="st4" d="M1135.5,285.8L1135.5,285.8c-6.3,0-11.4-5.1-11.4-11.4v-70.8c0-6.3,5.1-11.4,11.4-11.4l0,0
				c6.3,0,11.4,5.1,11.4,11.4v70.8C1146.9,280.7,1141.8,285.8,1135.5,285.8z"/>
			<rect x="1122.4" y="185" class="st4" width="26.6" height="14.3"/>
			<rect x="1122" y="278.7" class="st4" width="26.6" height="14.3"/>
		</g>
		<g>
			<path class="st4" d="M1266,726.6h-9c-6.6,0-12-5.4-12-12v-99.2c0-6.6,5.4-12,12-12h9c6.6,0,12,5.4,12,12v99.2
				C1278,721.2,1272.6,726.6,1266,726.6z"/>
			<rect x="1242.6" y="594" class="st4" width="38.4" height="18.8"/>
			<rect x="1242" y="717.2" class="st4" width="38.4" height="18.8"/>
		</g>
		<g>
			<path class="st4" d="M842,281L842,281c-6.5,0-11.8-5.3-11.8-11.9v-80.4c0-6.5,5.3-11.9,11.8-11.9l0,0c6.5,0,11.8,5.3,11.8,11.9
				v80.4C853.8,275.7,848.5,281,842,281z"/>
			<rect x="828.4" y="169" class="st4" width="27.6" height="15.9"/>
			<rect x="828" y="273.1" class="st4" width="27.6" height="15.9"/>
		</g>
		<g>
			<path class="st4" d="M1426,894.6h-9c-6.6,0-12-5.4-12-12v-99.2c0-6.6,5.4-12,12-12h9c6.6,0,12,5.4,12,12v99.2
				C1438,889.2,1432.6,894.6,1426,894.6z"/>
			<rect x="1402.6" y="762" class="st4" width="38.4" height="18.8"/>
			<rect x="1402" y="885.2" class="st4" width="38.4" height="18.8"/>
		</g>
		<g>
			<path class="st4" d="M1266,1053.6h-9c-6.6,0-12-5.4-12-12v-99.2c0-6.6,5.4-12,12-12h9c6.6,0,12,5.4,12,12v99.2
				C1278,1048.2,1272.6,1053.6,1266,1053.6z"/>
			<rect x="1242.6" y="921" class="st4" width="38.4" height="18.8"/>
			<rect x="1242" y="1044.2" class="st4" width="38.4" height="18.8"/>
		</g>
		<g>
			<path class="st4" d="M1696,1053.6h-9c-6.6,0-12-5.4-12-12v-99.2c0-6.6,5.4-12,12-12h9c6.6,0,12,5.4,12,12v99.2
				C1708,1048.2,1702.6,1053.6,1696,1053.6z"/>
			<rect x="1672.6" y="921" class="st4" width="38.4" height="18.8"/>
			<rect x="1672" y="1044.2" class="st4" width="38.4" height="18.8"/>
		</g>
		<g>
			<path class="st4" d="M1660,894.6h-9c-6.6,0-12-5.4-12-12v-99.2c0-6.6,5.4-12,12-12h9c6.6,0,12,5.4,12,12v99.2
				C1672,889.2,1666.6,894.6,1660,894.6z"/>
			<rect x="1636.6" y="762" class="st4" width="38.4" height="18.8"/>
			<rect x="1636" y="885.2" class="st4" width="38.4" height="18.8"/>
		</g>
		<g>
			<path class="st4" d="M1238,416L1238,416c-3.3,0-5.9-2.7-5.9-5.9V330c0-3.3,2.7-5.9,5.9-5.9l0,0c3.3,0,5.9,2.7,5.9,5.9V410
				C1243.9,413.3,1241.3,416,1238,416z"/>
			<rect x="1231.2" y="317" class="st4" width="13.8" height="14.1"/>
			<rect x="1231" y="408.9" class="st4" width="13.8" height="14.1"/>
		</g>
		<g>
			<path class="st4" d="M903,1051.8L903,1051.8c-3.3,0-5.9-2.7-5.9-5.9v-95.7c0-3.3,2.7-5.9,5.9-5.9l0,0c3.3,0,5.9,2.7,5.9,5.9v95.7
				C908.9,1049.1,906.3,1051.8,903,1051.8z"/>
			<rect x="896.2" y="936" class="st4" width="13.8" height="16.5"/>
			<rect x="896" y="1043.6" class="st4" width="13.8" height="16.4"/>
		</g>
		<g>
			<path class="st5" d="M1178,283.9L1178,283.9c-6.5,0-11.8-5.3-11.8-11.9v-69.1c0-6.5,5.3-11.9,11.8-11.9l0,0
				c6.5,0,11.8,5.3,11.8,11.9V272C1189.8,278.6,1184.5,283.9,1178,283.9z"/>
			<rect x="1164.4" y="184" class="st5" width="27.6" height="14.2"/>
			<rect x="1164" y="276.8" class="st5" width="27.6" height="14.2"/>
		</g>
		<g>
			<path class="st5" d="M1230.5,559.8h-6.9c-3.3,0-5.9-2.7-5.9-5.9v-95.7c0-3.3,2.7-5.9,5.9-5.9h6.9c3.3,0,5.9,2.7,5.9,5.9v95.7
				C1236.4,557.1,1233.8,559.8,1230.5,559.8z"/>
			<rect x="1216.3" y="444" class="st5" width="21.8" height="16.5"/>
			<rect x="1216" y="551.5" class="st5" width="21.8" height="16.5"/>
		</g>
		<g>
			<path class="st5" d="M1345.9,1053.6h-33.8c-6.5,0-11.8-5.3-11.8-11.8v-99.5c0-6.5,5.3-11.8,11.8-11.8h33.8
				c6.5,0,11.8,5.3,11.8,11.8v99.5C1357.8,1048.3,1352.4,1053.6,1345.9,1053.6z"/>
			<rect x="1296.1" y="921" class="st5" width="66.9" height="18.8"/>
			<rect x="1295" y="1044.2" class="st5" width="66.9" height="18.8"/>
		</g>
		<g>
			<path class="st5" d="M1804.8,726.6h-56.7c-6.5,0-11.8-5.3-11.8-11.8v-99.5c0-6.5,5.3-11.8,11.8-11.8h56.7
				c6.5,0,11.8,5.3,11.8,11.8v99.5C1816.7,721.3,1811.4,726.6,1804.8,726.6z"/>
			<rect x="1730.5" y="594" class="st5" width="93.5" height="18.8"/>
			<rect x="1729" y="717.2" class="st5" width="93.5" height="18.8"/>
		</g>
		<g>
			<path class="st5" d="M1155.1,563.4h-54.2c-6.5,0-11.8-5.3-11.8-11.8v-75.2c0-6.5,5.3-11.9,11.8-11.9h54.2
				c6.5,0,11.8,5.3,11.8,11.9v75.2C1166.9,558.1,1161.6,563.4,1155.1,563.4z"/>
			<rect x="1083.4" y="457" class="st5" width="90.6" height="15.1"/>
			<rect x="1082" y="555.9" class="st5" width="90.6" height="15.1"/>
		</g>
		<g>
			<path class="st5" d="M824.8,726.6h-12.7c-6.5,0-11.8-5.3-11.8-11.8v-99.5c0-6.5,5.3-11.8,11.8-11.8h12.7
				c6.5,0,11.8,5.3,11.8,11.8v99.5C836.7,721.3,831.4,726.6,824.8,726.6z"/>
			<rect x="797.7" y="594" class="st5" width="42.3" height="18.8"/>
			<rect x="797" y="717.2" class="st5" width="42.3" height="18.8"/>
		</g>
		<g>
			<path class="st5" d="M1031.9,418.9h-11.8c-6.5,0-11.8-5.3-11.8-11.9v-69.1c0-6.5,5.3-11.9,11.8-11.9h11.8
				c6.5,0,11.8,5.3,11.8,11.9V407C1043.8,413.6,1038.4,418.9,1031.9,418.9z"/>
			<rect x="1005.7" y="319" class="st5" width="41.3" height="14.2"/>
			<rect x="1005" y="411.8" class="st5" width="41.3" height="14.2"/>
		</g>
		<g>
			<path class="st5" d="M1103,1045.8h-11c-6.5,0-11.8-5.3-11.8-11.8v-83c0-6.5,5.3-11.8,11.8-11.8h11c6.5,0,11.8,5.3,11.8,11.8v83
				C1114.8,1040.5,1109.5,1045.8,1103,1045.8z"/>
			<rect x="1077.6" y="931" class="st5" width="40.4" height="16.3"/>
			<rect x="1077" y="1037.7" class="st5" width="40.4" height="16.3"/>
		</g>
		<g>
			<path class="st5" d="M1028.9,894.6h-11.8c-6.5,0-11.8-5.3-11.8-11.8v-99.5c0-6.5,5.3-11.8,11.8-11.8h11.8
				c6.5,0,11.8,5.3,11.8,11.8v99.5C1040.8,889.3,1035.4,894.6,1028.9,894.6z"/>
			<rect x="1002.7" y="762" class="st5" width="41.3" height="18.8"/>
			<rect x="1002" y="885.2" class="st5" width="41.3" height="18.8"/>
		</g>
		<g>
			<path class="st6" d="M1260.7,286h-36.4c-6.5,0-11.8-5.3-11.8-11.9v-67.4c0-6.5,5.3-11.9,11.8-11.9h36.4c6.5,0,11.8,5.3,11.8,11.9
				v67.4C1272.5,280.7,1267.2,286,1260.7,286z"/>
			<rect x="1208.1" y="188" class="st6" width="69.9" height="13.9"/>
			<rect x="1207" y="279.1" class="st6" width="69.9" height="13.9"/>
		</g>
		<g>
			<path class="st6" d="M1426.6,1053.6h-48.2c-6.5,0-11.8-5.3-11.8-11.8v-99.5c0-6.5,5.3-11.8,11.8-11.8h48.2
				c6.5,0,11.8,5.3,11.8,11.8v99.5C1438.5,1048.3,1433.1,1053.6,1426.6,1053.6z"/>
			<rect x="1361.3" y="921" class="st6" width="83.7" height="18.8"/>
			<rect x="1360" y="1044.2" class="st6" width="83.7" height="18.8"/>
		</g>
		<g>
			<path class="st6" d="M901.9,418h-11.8c-6.5,0-11.8-5.3-11.8-11.9v-80.4c0-6.5,5.3-11.9,11.8-11.9h11.8c6.5,0,11.8,5.3,11.8,11.9
				v80.4C913.8,412.7,908.4,418,901.9,418z"/>
			<rect x="875.7" y="306" class="st6" width="41.3" height="15.9"/>
			<rect x="875" y="410.1" class="st6" width="41.3" height="15.9"/>
		</g>
		<g>
			<path class="st6" d="M901.9,894.6h-11.8c-6.5,0-11.8-5.3-11.8-11.8v-99.5c0-6.5,5.3-11.8,11.8-11.8h11.8
				c6.5,0,11.8,5.3,11.8,11.8v99.5C913.8,889.3,908.4,894.6,901.9,894.6z"/>
			<rect x="875.7" y="762" class="st6" width="41.3" height="18.8"/>
			<rect x="875" y="885.2" class="st6" width="41.3" height="18.8"/>
		</g>
		<g>
			<path class="st7" d="M864.6,894.6h-48.2c-6.5,0-11.8-5.3-11.8-11.8v-99.5c0-6.5,5.3-11.8,11.8-11.8h48.2
				c6.5,0,11.8,5.3,11.8,11.8v99.5C876.5,889.3,871.1,894.6,864.6,894.6z"/>
			<rect x="799.3" y="762" class="st7" width="83.7" height="18.8"/>
			<rect x="798" y="885.2" class="st7" width="83.7" height="18.8"/>
		</g>
		<g>
			<path class="st7" d="M905.6,729.6h-48.2c-6.5,0-11.8-5.3-11.8-11.8v-99.5c0-6.5,5.3-11.8,11.8-11.8h48.2
				c6.5,0,11.8,5.3,11.8,11.8v99.5C917.5,724.3,912.1,729.6,905.6,729.6z"/>
			<rect x="840.3" y="597" class="st7" width="83.7" height="18.8"/>
			<rect x="839" y="720.2" class="st7" width="83.7" height="18.8"/>
		</g>
		<g>
			<path class="st7" d="M986.7,415.4h-47.4c-6.5,0-11.8-5.3-11.8-11.9v-76.1c0-6.5,5.3-11.9,11.8-11.9h47.4
				c6.5,0,11.8,5.3,11.8,11.9v76C998.5,410,993.2,415.4,986.7,415.4z"/>
			<rect x="922.3" y="308" class="st7" width="82.7" height="15.3"/>
			<rect x="921" y="407.7" class="st7" width="82.7" height="15.3"/>
		</g>
		<g>
			<path class="st7" d="M984.6,894.6h-48.2c-6.5,0-11.8-5.3-11.8-11.8v-99.5c0-6.5,5.3-11.8,11.8-11.8h48.2
				c6.5,0,11.8,5.3,11.8,11.8v99.5C996.5,889.3,991.1,894.6,984.6,894.6z"/>
			<rect x="919.3" y="762" class="st7" width="83.7" height="18.8"/>
			<rect x="918" y="885.2" class="st7" width="83.7" height="18.8"/>
		</g>
		<g>
			<path class="st7" d="M1832.6,294.6h-48.2c-6.5,0-11.8-5.3-11.8-11.9v-99.5c0-6.5,5.3-11.9,11.8-11.9h48.2
				c6.5,0,11.8,5.3,11.8,11.9v99.5C1844.5,289.3,1839.1,294.6,1832.6,294.6z"/>
			<rect x="1767.3" y="162" class="st7" width="83.7" height="18.8"/>
			<rect x="1766" y="285.2" class="st7" width="83.7" height="18.8"/>
		</g>
		<g>
			<path class="st7" d="M812.2,283.8L812.2,283.8c-1.8,0-3.3-1.5-3.3-3.3v-87.1c0-1.8,1.5-3.3,3.3-3.3l0,0c1.8,0,3.3,1.5,3.3,3.3
				v87.1C815.4,282.4,814,283.8,812.2,283.8z"/>
			<rect x="808.4" y="183" class="st7" width="7.6" height="14.3"/>
			<rect x="808.3" y="276.7" class="st7" width="7.6" height="14.3"/>
		</g>
		<g>
			<g>
				<path class="st7" d="M938.5,1051.8h-5.9c-6.5,0-11.8-5.3-11.8-11.8v-83c0-6.5,5.3-11.8,11.8-11.8h5.9c6.5,0,11.8,5.3,11.8,11.8
					v83C950.3,1046.5,945,1051.8,938.5,1051.8z"/>
			</g>
			<rect x="918.5" y="937" class="st7" width="34.5" height="16.3"/>
			<rect x="918" y="1043.7" class="st7" width="34.5" height="16.3"/>
		</g>
		<g>
			<path class="st7" d="M1197.8,559.3h-12.7c-6.5,0-11.8-5.3-11.8-11.8v-63.9c0-6.5,5.3-11.9,11.8-11.9h12.7
				c6.5,0,11.8,5.3,11.8,11.9v63.9C1209.7,554,1204.4,559.3,1197.8,559.3z"/>
			<rect x="1170.7" y="465" class="st7" width="42.3" height="13.4"/>
			<rect x="1170" y="552.6" class="st7" width="42.3" height="13.4"/>
		</g>
		<g>
			<path class="st7" d="M1298.8,722.2h-1.7c-6.5,0-11.8-5.3-11.8-11.8v-90.8c0-6.5,5.3-11.8,11.8-11.8h1.7c6.5,0,11.8,5.3,11.8,11.8
				v90.8C1310.7,716.9,1305.4,722.2,1298.8,722.2z"/>
			<rect x="1283.5" y="599" class="st7" width="29.5" height="17.5"/>
			<rect x="1283" y="713.5" class="st7" width="29.5" height="17.5"/>
		</g>
		<g>
			<path class="st7" d="M1465.4,894.6h-6.8c-6.5,0-11.8-5.3-11.8-11.8v-99.5c0-6.5,5.3-11.8,11.8-11.8h6.8c6.5,0,11.8,5.3,11.8,11.8
				v99.5C1477.2,889.3,1471.9,894.6,1465.4,894.6z"/>
			<rect x="1444.6" y="762" class="st7" width="35.4" height="18.8"/>
			<rect x="1444" y="885.2" class="st7" width="35.4" height="18.8"/>
		</g>
		<g>
			<path class="st7" d="M1756.5,560.8l-6,0c-6.5,0-11.8-5.3-11.8-11.9l0.1-83c0-6.5,5.3-11.8,11.9-11.8l6,0
				c6.5,0,11.8,5.3,11.8,11.9l-0.1,83C1768.3,555.5,1763,560.8,1756.5,560.8z"/>
			
				<rect x="1745.7" y="436.9" transform="matrix(1.035310e-03 -1 1 1.035310e-03 1297.885 2207.54)" class="st7" width="16.3" height="34.5"/>
			
				<rect x="1745.1" y="543.6" transform="matrix(1.035310e-03 -1 1 1.035310e-03 1190.5658 2313.4497)" class="st7" width="16.3" height="34.5"/>
		</g>
		<g>
			<path class="st7" d="M1695.4,894.6h-6.8c-6.5,0-11.8-5.3-11.8-11.8v-99.5c0-6.5,5.3-11.8,11.8-11.8h6.8c6.5,0,11.8,5.3,11.8,11.8
				v99.5C1707.2,889.3,1701.9,894.6,1695.4,894.6z"/>
			<rect x="1674.6" y="762" class="st7" width="35.4" height="18.8"/>
			<rect x="1674" y="885.2" class="st7" width="35.4" height="18.8"/>
		</g>
		<g>
			<path class="st7" d="M1900.5,1045.1h-38.9c-6.5,0-11.8-5.3-11.8-11.8v-93.4c0-6.5,5.3-11.8,11.8-11.8h38.9
				c6.5,0,11.8,5.3,11.8,11.8v93.4C1912.3,1039.7,1907,1045.1,1900.5,1045.1z"/>
			<rect x="1845.1" y="919" class="st7" width="72.9" height="17.9"/>
			<rect x="1844" y="1036.1" class="st7" width="72.9" height="17.9"/>
		</g>
		<g>
			<path class="st8" d="M869.3,1052.3h-51.6c-6.5,0-11.8-5.3-11.8-11.8v-89.9c0-6.5,5.3-11.8,11.8-11.8h51.6
				c6.5,0,11.8,5.3,11.8,11.8v89.9C881.2,1047,875.8,1052.3,869.3,1052.3z"/>
			<rect x="800.4" y="930" class="st8" width="87.6" height="17.4"/>
			<rect x="799" y="1043.6" class="st8" width="87.6" height="17.4"/>
		</g>
		<g>
			<path class="st8" d="M993.3,729.5h-51.6c-6.5,0-11.8-5.3-11.8-11.8V617.3c0-6.5,5.3-11.8,11.8-11.8h51.6
				c6.5,0,11.8,5.3,11.8,11.8v100.3C1005.2,724.2,999.8,729.5,993.3,729.5z"/>
			<rect x="924.4" y="596" class="st8" width="87.6" height="19"/>
			<rect x="923" y="720" class="st8" width="87.6" height="19"/>
		</g>
		<g>
			<path class="st8" d="M1313.5,417h-38.1c-6.5,0-11.8-5.3-11.8-11.9v-55.2c0-6.5,5.3-11.9,11.8-11.9h38.1c6.5,0,11.8,5.3,11.8,11.9
				v55.2C1325.4,411.6,1320.1,417,1313.5,417z"/>
			<rect x="1259.1" y="332" class="st8" width="71.9" height="12.1"/>
			<rect x="1258" y="410.9" class="st8" width="71.9" height="12.1"/>
		</g>
		<g>
			<path class="st8" d="M858.1,566.4h-43.2c-6.5,0-11.8-5.3-11.8-11.8v-89.1c0-6.5,5.3-11.9,11.8-11.9h43.2
				c6.5,0,11.8,5.3,11.8,11.9v89.1C869.9,561,864.6,566.4,858.1,566.4z"/>
			<rect x="798.2" y="445" class="st8" width="77.8" height="17.2"/>
			<rect x="797" y="557.8" class="st8" width="77.8" height="17.2"/>
		</g>
		<g>
			<path class="st8" d="M1884.1,724.8h-43.2c-6.5,0-11.8-5.3-11.8-11.8v-96.9c0-6.5,5.3-11.8,11.8-11.8h43.2
				c6.5,0,11.8,5.3,11.8,11.8v96.9C1895.9,719.5,1890.6,724.8,1884.1,724.8z"/>
			<rect x="1824.2" y="595" class="st8" width="77.8" height="18.4"/>
			<rect x="1823" y="715.6" class="st8" width="77.8" height="18.4"/>
		</g>
		<g>
			<path class="st8" d="M1538.1,288.8h-43.2c-6.5,0-11.8-5.3-11.8-11.9v-96.9c0-6.5,5.3-11.9,11.8-11.9h43.2
				c6.5,0,11.8,5.3,11.8,11.9v96.9C1549.9,283.5,1544.6,288.8,1538.1,288.8z"/>
			<rect x="1478.2" y="159" class="st8" width="77.8" height="18.4"/>
			<rect x="1477" y="279.6" class="st8" width="77.8" height="18.4"/>
		</g>
		<g>
			<path class="st8" d="M935.3,285.3h-51.6c-6.5,0-11.8-5.3-11.8-11.9v-89.9c0-6.5,5.3-11.9,11.8-11.9h51.6
				c6.5,0,11.8,5.3,11.8,11.9v89.9C947.2,280,941.8,285.3,935.3,285.3z"/>
			<rect x="866.4" y="163" class="st8" width="87.6" height="17.4"/>
			<rect x="865" y="276.6" class="st8" width="87.6" height="17.4"/>
		</g>
		<g>
			<path class="st8" d="M1383.3,721.3h-51.6c-6.5,0-11.8-5.3-11.8-11.8v-89.9c0-6.5,5.3-11.8,11.8-11.8h51.6
				c6.5,0,11.8,5.3,11.8,11.8v89.9C1395.2,716,1389.8,721.3,1383.3,721.3z"/>
			<rect x="1314.4" y="599" class="st8" width="87.6" height="17.4"/>
			<rect x="1313" y="712.6" class="st8" width="87.6" height="17.4"/>
		</g>
		<g>
			<path class="st8" d="M1889.3,420.9h-51.6c-6.5,0-11.8-5.3-11.8-11.9v-82.1c0-6.5,5.3-11.9,11.8-11.9h51.6
				c6.5,0,11.8,5.3,11.8,11.9v82.1C1901.2,415.6,1895.8,420.9,1889.3,420.9z"/>
			<rect x="1820.4" y="307" class="st8" width="87.6" height="16.2"/>
			<rect x="1819" y="412.8" class="st8" width="87.6" height="16.2"/>
		</g>
		<g>
			<path class="st8" d="M1780.3,1048.9h-51.6c-6.5,0-11.8-5.3-11.8-11.8v-82.1c0-6.5,5.3-11.8,11.8-11.8h51.6
				c6.5,0,11.8,5.3,11.8,11.8v82.1C1792.2,1043.6,1786.8,1048.9,1780.3,1048.9z"/>
			<rect x="1711.4" y="935" class="st8" width="87.6" height="16.2"/>
			<rect x="1710" y="1040.8" class="st8" width="87.6" height="16.2"/>
		</g>
		<g>
			<path class="st8" d="M1110.3,890.9h-51.6c-6.5,0-11.8-5.3-11.8-11.8v-82.1c0-6.5,5.3-11.8,11.8-11.8h51.6
				c6.5,0,11.8,5.3,11.8,11.8v82.1C1122.2,885.6,1116.8,890.9,1110.3,890.9z"/>
			<rect x="1041.4" y="777" class="st8" width="87.6" height="16.2"/>
			<rect x="1040" y="882.8" class="st8" width="87.6" height="16.2"/>
		</g>
		<g>
			<path class="st5" d="M816.1,419.8L816.1,419.8c-2.3,0-4.2-1.9-4.2-4.2v-86.1c0-2.3,1.9-4.2,4.2-4.2l0,0c2.3,0,4.2,1.9,4.2,4.2
				v86.1C820.3,417.9,818.4,419.8,816.1,419.8z"/>
			<rect x="811.2" y="318" class="st5" width="9.9" height="14.5"/>
			<rect x="811" y="412.5" class="st5" width="9.9" height="14.5"/>
		</g>
		<g>
			<path class="st8" d="M1027.3,1045.9h-51.6c-6.5,0-11.8-5.3-11.8-11.8v-82.1c0-6.5,5.3-11.8,11.8-11.8h51.6
				c6.5,0,11.8,5.3,11.8,11.8v82.1C1039.2,1040.6,1033.8,1045.9,1027.3,1045.9z"/>
			<rect x="958.4" y="932" class="st8" width="87.6" height="16.2"/>
			<rect x="957" y="1037.8" class="st8" width="87.6" height="16.2"/>
		</g>
		<g>
			<path class="st8" d="M1187.3,1048.9h-51.6c-6.5,0-11.8-5.3-11.8-11.8v-82.1c0-6.5,5.3-11.8,11.8-11.8h51.6
				c6.5,0,11.8,5.3,11.8,11.8v82.1C1199.2,1043.6,1193.8,1048.9,1187.3,1048.9z"/>
			<rect x="1118.4" y="935" class="st8" width="87.6" height="16.2"/>
			<rect x="1117" y="1040.8" class="st8" width="87.6" height="16.2"/>
		</g>
		<g>
			<path class="st8" d="M1517.3,1050.9h-51.6c-6.5,0-11.8-5.3-11.8-11.8v-82.1c0-6.5,5.3-11.8,11.8-11.8h51.6
				c6.5,0,11.8,5.3,11.8,11.8v82.1C1529.2,1045.6,1523.8,1050.9,1517.3,1050.9z"/>
			<rect x="1448.4" y="937" class="st8" width="87.6" height="16.2"/>
			<rect x="1447" y="1042.8" class="st8" width="87.6" height="16.2"/>
		</g>
		<g>
			<path class="st8" d="M1649.3,1048.9h-51.6c-6.5,0-11.8-5.3-11.8-11.8v-82.1c0-6.5,5.3-11.8,11.8-11.8h51.6
				c6.5,0,11.8,5.3,11.8,11.8v82.1C1661.2,1043.6,1655.8,1048.9,1649.3,1048.9z"/>
			<rect x="1580.4" y="935" class="st8" width="87.6" height="16.2"/>
			<rect x="1579" y="1040.8" class="st8" width="87.6" height="16.2"/>
		</g>
		<g>
			<path class="st8" d="M1781.3,893.9h-51.6c-6.5,0-11.8-5.3-11.8-11.8v-82.1c0-6.5,5.3-11.8,11.8-11.8h51.6
				c6.5,0,11.8,5.3,11.8,11.8v82.1C1793.2,888.6,1787.8,893.9,1781.3,893.9z"/>
			<rect x="1712.4" y="780" class="st8" width="87.6" height="16.2"/>
			<rect x="1711" y="885.8" class="st8" width="87.6" height="16.2"/>
		</g>
		<g>
			<path class="st8" d="M1887.3,890.9h-51.6c-6.5,0-11.8-5.3-11.8-11.8v-82.1c0-6.5,5.3-11.8,11.8-11.8h51.6
				c6.5,0,11.8,5.3,11.8,11.8v82.1C1899.2,885.6,1893.8,890.9,1887.3,890.9z"/>
			<rect x="1818.4" y="777" class="st8" width="87.6" height="16.2"/>
			<rect x="1817" y="882.8" class="st8" width="87.6" height="16.2"/>
		</g>
		<g>
			<path class="st8" d="M1311.3,556.9h-51.6c-6.5,0-11.8-5.3-11.8-11.8v-82.1c0-6.5,5.3-11.9,11.8-11.9h51.6
				c6.5,0,11.8,5.3,11.8,11.9v82.1C1323.2,551.6,1317.8,556.9,1311.3,556.9z"/>
			<rect x="1242.4" y="443" class="st8" width="87.6" height="16.2"/>
			<rect x="1241" y="548.8" class="st8" width="87.6" height="16.2"/>
		</g>
		<g>
			<path class="st8" d="M1851.4,557h-50.8c-6.5,0-11.8-5.3-11.8-11.8v-68.3c0-6.5,5.3-11.9,11.8-11.9h50.8c6.5,0,11.8,5.3,11.8,11.9
				v68.3C1863.2,551.6,1857.9,557,1851.4,557z"/>
			<rect x="1783.3" y="458" class="st8" width="86.7" height="14.1"/>
			<rect x="1782" y="549.9" class="st8" width="86.7" height="14.1"/>
		</g>
		<g>
			<path class="st8" d="M1555.3,890.9h-51.6c-6.5,0-11.8-5.3-11.8-11.8v-82.1c0-6.5,5.3-11.8,11.8-11.8h51.6
				c6.5,0,11.8,5.3,11.8,11.8v82.1C1567.2,885.6,1561.8,890.9,1555.3,890.9z"/>
			<rect x="1486.4" y="777" class="st8" width="87.6" height="16.2"/>
			<rect x="1485" y="882.8" class="st8" width="87.6" height="16.2"/>
		</g>
		<g>
			<path class="st8" d="M1296.3,890.9h-51.6c-6.5,0-11.8-5.3-11.8-11.8v-82.1c0-6.5,5.3-11.8,11.8-11.8h51.6
				c6.5,0,11.8,5.3,11.8,11.8v82.1C1308.2,885.6,1302.8,890.9,1296.3,890.9z"/>
			<rect x="1227.4" y="777" class="st8" width="87.6" height="16.2"/>
			<rect x="1226" y="882.8" class="st8" width="87.6" height="16.2"/>
		</g>
		<g>
			<path class="st8" d="M1637.3,285.9h-51.6c-6.5,0-11.8-5.3-11.8-11.9v-82.1c0-6.5,5.3-11.9,11.8-11.9h51.6
				c6.5,0,11.8,5.3,11.8,11.9v82.1C1649.2,280.6,1643.8,285.9,1637.3,285.9z"/>
			<rect x="1568.4" y="172" class="st8" width="87.6" height="16.2"/>
			<rect x="1567" y="277.8" class="st8" width="87.6" height="16.2"/>
		</g>
		<g>
			<path class="st8" d="M1447.3,420.9h-51.6c-6.5,0-11.8-5.3-11.8-11.9v-82.1c0-6.5,5.3-11.9,11.8-11.9h51.6
				c6.5,0,11.8,5.3,11.8,11.9v82.1C1459.2,415.6,1453.8,420.9,1447.3,420.9z"/>
			<rect x="1378.4" y="307" class="st8" width="87.6" height="16.2"/>
			<rect x="1377" y="412.8" class="st8" width="87.6" height="16.2"/>
		</g>
		<g>
			<path class="st4" d="M1062.7,1045.8h-1.4c-6.6,0-12-5.4-12-12v-82.7c0-6.6,5.4-12,12-12h1.4c6.6,0,12,5.4,12,12v82.7
				C1074.7,1040.4,1069.3,1045.8,1062.7,1045.8z"/>
			<rect x="1047.5" y="931" class="st4" width="29.5" height="16.3"/>
			<rect x="1047" y="1037.7" class="st4" width="29.5" height="16.3"/>
		</g>
		<g>
			<path class="st4" d="M1816.7,1049.8h-1.4c-6.6,0-12-5.4-12-12v-82.7c0-6.6,5.4-12,12-12h1.4c6.6,0,12,5.4,12,12v82.7
				C1828.7,1044.4,1823.3,1049.8,1816.7,1049.8z"/>
			<rect x="1801.5" y="935" class="st4" width="29.5" height="16.3"/>
			<rect x="1801" y="1041.7" class="st4" width="29.5" height="16.3"/>
		</g>
		<g>
			<path class="st4" d="M1147.4,891.8h24.2c6.6,0,12-5.4,12-12v-82.7c0-6.6-5.4-12-12-12h-24.2c-6.6,0-12,5.4-12,12v82.7
				C1135.4,886.4,1140.8,891.8,1147.4,891.8z"/>
			<rect x="1131" y="777" class="st4" width="56.1" height="16.3"/>
			<rect x="1131.9" y="883.7" class="st4" width="56.1" height="16.3"/>
		</g>
		<g>
			<path class="st4" d="M971.4,286.8h24.2c6.6,0,12-5.4,12-12v-82.7c0-6.6-5.4-12-12-12h-24.2c-6.6,0-12,5.4-12,12v82.7
				C959.4,281.4,964.8,286.8,971.4,286.8z"/>
			<rect x="955" y="172" class="st4" width="56.1" height="16.3"/>
			<rect x="955.9" y="278.7" class="st4" width="56.1" height="16.3"/>
		</g>
		<g>
			<path class="st4" d="M834.4,422.8h24.2c6.6,0,12-5.4,12-12v-82.7c0-6.6-5.4-12-12-12h-24.2c-6.6,0-12,5.4-12,12v82.7
				C822.4,417.4,827.8,422.8,834.4,422.8z"/>
			<rect x="818" y="308" class="st4" width="56.1" height="16.3"/>
			<rect x="818.9" y="414.7" class="st4" width="56.1" height="16.3"/>
		</g>
		<g>
			<path class="st4" d="M1766.4,418.8h24.2c6.6,0,12-5.4,12-12v-82.7c0-6.6-5.4-12-12-12h-24.2c-6.6,0-12,5.4-12,12v82.7
				C1754.4,413.4,1759.8,418.8,1766.4,418.8z"/>
			<rect x="1750" y="304" class="st4" width="56.1" height="16.3"/>
			<rect x="1750.9" y="410.7" class="st4" width="56.1" height="16.3"/>
		</g>
		<g>
			<path class="st4" d="M1863.4,285.8h24.2c6.6,0,12-5.4,12-12v-82.7c0-6.6-5.4-12-12-12h-24.2c-6.6,0-12,5.4-12,12v82.7
				C1851.4,280.4,1856.8,285.8,1863.4,285.8z"/>
			<rect x="1847" y="171" class="st4" width="56.1" height="16.3"/>
			<rect x="1847.9" y="277.7" class="st4" width="56.1" height="16.3"/>
		</g>
		<g>
			<path class="st4" d="M1425.4,721.8h24.2c6.6,0,12-5.4,12-12v-82.7c0-6.6-5.4-12-12-12h-24.2c-6.6,0-12,5.4-12,12v82.7
				C1413.4,716.4,1418.8,721.8,1425.4,721.8z"/>
			<rect x="1409" y="607" class="st4" width="56.1" height="16.3"/>
			<rect x="1409.9" y="713.7" class="st4" width="56.1" height="16.3"/>
		</g>
		<g>
			<path class="st4" d="M1589.4,894.8h24.2c6.6,0,12-5.4,12-12v-82.7c0-6.6-5.4-12-12-12h-24.2c-6.6,0-12,5.4-12,12v82.7
				C1577.4,889.4,1582.8,894.8,1589.4,894.8z"/>
			<rect x="1573" y="780" class="st4" width="56.1" height="16.3"/>
			<rect x="1573.9" y="886.7" class="st4" width="56.1" height="16.3"/>
		</g>
		<g>
			<path class="st4" d="M1349.4,559.8h24.2c6.6,0,12-5.4,12-12v-82.7c0-6.6-5.4-12-12-12h-24.2c-6.6,0-12,5.4-12,12v82.7
				C1337.4,554.4,1342.8,559.8,1349.4,559.8z"/>
			<rect x="1333" y="445" class="st4" width="56.1" height="16.3"/>
			<rect x="1333.9" y="551.7" class="st4" width="56.1" height="16.3"/>
		</g>
		<g>
			<path class="st4" d="M1029.4,722.8h24.2c6.6,0,12-5.4,12-12v-82.7c0-6.6-5.4-12-12-12h-24.2c-6.6,0-12,5.4-12,12v82.7
				C1017.4,717.4,1022.8,722.8,1029.4,722.8z"/>
			<rect x="1013" y="608" class="st4" width="56.1" height="16.3"/>
			<rect x="1013.9" y="714.7" class="st4" width="56.1" height="16.3"/>
		</g>
		<g>
			<path class="st4" d="M896.4,563.8h24.2c6.6,0,12-5.4,12-12v-82.7c0-6.6-5.4-12-12-12h-24.2c-6.6,0-12,5.4-12,12v82.7
				C884.4,558.4,889.8,563.8,896.4,563.8z"/>
			<rect x="880" y="449" class="st4" width="56.1" height="16.3"/>
			<rect x="880.9" y="555.7" class="st4" width="56.1" height="16.3"/>
		</g>
		<g>
			<path class="st4" d="M1067.9,416.5h19.2c6.6,0,12-5.4,12-12v-61c0-6.6-5.4-12-12-12h-19.2c-6.6,0-12,5.4-12,12v61
				C1055.9,411.1,1061.3,416.5,1067.9,416.5z"/>
			<rect x="1052" y="325" class="st4" width="50.2" height="13"/>
			<rect x="1052.8" y="410" class="st4" width="50.2" height="13"/>
		</g>
		<g>
			<path class="st4" d="M1679.4,285.8h24.2c6.6,0,12-5.4,12-12v-82.7c0-6.6-5.4-12-12-12h-24.2c-6.6,0-12,5.4-12,12v82.7
				C1667.4,280.4,1672.8,285.8,1679.4,285.8z"/>
			<rect x="1663" y="171" class="st4" width="56.1" height="16.3"/>
			<rect x="1663.9" y="277.7" class="st4" width="56.1" height="16.3"/>
		</g>
		<g>
			<path class="st4" d="M1680.4,720.8h24.2c6.6,0,12-5.4,12-12v-82.7c0-6.6-5.4-12-12-12h-24.2c-6.6,0-12,5.4-12,12v82.7
				C1668.4,715.4,1673.8,720.8,1680.4,720.8z"/>
			<rect x="1664" y="606" class="st4" width="56.1" height="16.3"/>
			<rect x="1664.9" y="712.7" class="st4" width="56.1" height="16.3"/>
		</g>
		<g>
			<path class="st4" d="M1695.4,560.9h24.2c6.6,0,12-5.4,12-12v-68.8c0-6.6-5.4-12-12-12h-24.2c-6.6,0-12,5.4-12,12v68.8
				C1683.4,555.5,1688.8,560.9,1695.4,560.9z"/>
			<rect x="1679" y="461" class="st4" width="56.1" height="14.2"/>
			<rect x="1679.9" y="553.8" class="st4" width="56.1" height="14.2"/>
		</g>
		<g>
			<path class="st7" d="M1218.5,1045.4L1218.5,1045.4c-5.8,0-10.6-4.8-10.6-10.6v-90.7c0-5.8,4.8-10.6,10.6-10.6l0,0
				c5.8,0,10.6,4.8,10.6,10.6v90.7C1229.1,1040.7,1224.3,1045.4,1218.5,1045.4z"/>
			<rect x="1206.4" y="925" class="st7" width="24.6" height="17.1"/>
			<rect x="1206" y="1036.9" class="st7" width="24.6" height="17.1"/>
		</g>
		<g>
			<path class="st7" d="M1562.5,1051.4L1562.5,1051.4c-5.8,0-10.6-4.8-10.6-10.6v-90.7c0-5.8,4.8-10.6,10.6-10.6l0,0
				c5.8,0,10.6,4.8,10.6,10.6v90.7C1573.1,1046.7,1568.3,1051.4,1562.5,1051.4z"/>
			<rect x="1550.4" y="931" class="st7" width="24.6" height="17.1"/>
			<rect x="1550" y="1042.9" class="st7" width="24.6" height="17.1"/>
		</g>
		<g>
			<path class="st7" d="M1207.5,894.4L1207.5,894.4c-5.8,0-10.6-4.8-10.6-10.6v-90.7c0-5.8,4.8-10.6,10.6-10.6l0,0
				c5.8,0,10.6,4.8,10.6,10.6v90.7C1218.1,889.7,1213.3,894.4,1207.5,894.4z"/>
			<rect x="1195.4" y="774" class="st7" width="24.6" height="17.1"/>
			<rect x="1195" y="885.9" class="st7" width="24.6" height="17.1"/>
		</g>
		<g>
			<path class="st7" d="M1028.2,279.6h-2c-5.8,0-10.6-4.8-10.6-10.6v-62.1c0-5.8,4.8-10.6,10.6-10.6h2c5.8,0,10.6,4.8,10.6,10.6
				v62.1C1038.8,274.9,1034,279.6,1028.2,279.6z"/>
			<rect x="1013.9" y="190" class="st7" width="26.9" height="12.7"/>
			<rect x="1013.5" y="273.3" class="st7" width="26.9" height="12.7"/>
		</g>
		<g>
			<path class="st7" d="M1731.2,414.6h-2c-5.8,0-10.6-4.8-10.6-10.6v-62.1c0-5.8,4.8-10.6,10.6-10.6h2c5.8,0,10.6,4.8,10.6,10.6V404
				C1741.8,409.9,1737,414.6,1731.2,414.6z"/>
			<rect x="1716.9" y="325" class="st7" width="26.9" height="12.7"/>
			<rect x="1716.5" y="408.3" class="st7" width="26.9" height="12.7"/>
		</g>
		<g>
			<path class="st7" d="M1333.2,894.6h-2c-5.8,0-10.6-4.8-10.6-10.6v-62.1c0-5.8,4.8-10.6,10.6-10.6h2c5.8,0,10.6,4.8,10.6,10.6V884
				C1343.8,889.9,1339,894.6,1333.2,894.6z"/>
			<rect x="1318.9" y="805" class="st7" width="26.9" height="12.7"/>
			<rect x="1318.5" y="888.3" class="st7" width="26.9" height="12.7"/>
		</g>
		<g>
			<path class="st7" d="M1411.2,559.6h-2c-5.8,0-10.6-4.8-10.6-10.6v-62.1c0-5.8,4.8-10.6,10.6-10.6h2c5.8,0,10.6,4.8,10.6,10.6V549
				C1421.8,554.9,1417,559.6,1411.2,559.6z"/>
			<rect x="1396.9" y="470" class="st7" width="26.9" height="12.7"/>
			<rect x="1396.5" y="553.3" class="st7" width="26.9" height="12.7"/>
		</g>
		<g>
			<path class="st7" d="M1365.2,894.6h-2c-5.8,0-10.6-4.8-10.6-10.6v-62.1c0-5.8,4.8-10.6,10.6-10.6h2c5.8,0,10.6,4.8,10.6,10.6V884
				C1375.8,889.9,1371,894.6,1365.2,894.6z"/>
			<rect x="1350.9" y="805" class="st7" width="26.9" height="12.7"/>
			<rect x="1350.5" y="888.3" class="st7" width="26.9" height="12.7"/>
		</g>
		<g>
			<path class="st7" d="M1086.2,721.6h-2c-5.8,0-10.6-4.8-10.6-10.6v-62.1c0-5.8,4.8-10.6,10.6-10.6h2c5.8,0,10.6,4.8,10.6,10.6V711
				C1096.8,716.9,1092,721.6,1086.2,721.6z"/>
			<rect x="1071.9" y="632" class="st7" width="26.9" height="12.7"/>
			<rect x="1071.5" y="715.3" class="st7" width="26.9" height="12.7"/>
		</g>
		<g>
			<path class="st7" d="M1492.2,721.6h-2c-5.8,0-10.6-4.8-10.6-10.6v-62.1c0-5.8,4.8-10.6,10.6-10.6h2c5.8,0,10.6,4.8,10.6,10.6V711
				C1502.8,716.9,1498,721.6,1492.2,721.6z"/>
			<rect x="1477.9" y="632" class="st7" width="26.9" height="12.7"/>
			<rect x="1477.5" y="715.3" class="st7" width="26.9" height="12.7"/>
		</g>
		<g>
			<path class="st5" d="M1177.1,725.4h-54.2c-6.5,0-11.8-5.3-11.8-11.8v-75.2c0-6.5,5.3-11.8,11.8-11.8h54.2
				c6.5,0,11.8,5.3,11.8,11.8v75.2C1188.9,720.1,1183.6,725.4,1177.1,725.4z"/>
			<rect x="1105.4" y="619" class="st5" width="90.6" height="15.1"/>
			<rect x="1104" y="717.9" class="st5" width="90.6" height="15.1"/>
		</g>
		<g>
			<path class="st5" d="M1583.1,717.4h-54.2c-6.5,0-11.8-5.3-11.8-11.8v-75.2c0-6.5,5.3-11.8,11.8-11.8h54.2
				c6.5,0,11.8,5.3,11.8,11.8v75.2C1594.9,712.1,1589.6,717.4,1583.1,717.4z"/>
			<rect x="1511.4" y="611" class="st5" width="90.6" height="15.1"/>
			<rect x="1510" y="709.9" class="st5" width="90.6" height="15.1"/>
		</g>
		<g>
			<path class="st5" d="M1168.5,420h-38.1c-6.5,0-11.8-5.3-11.8-11.9v-68.3c0-6.5,5.3-11.9,11.8-11.9h38.1c6.5,0,11.8,5.3,11.8,11.9
				v68.3C1180.4,414.6,1175.1,420,1168.5,420z"/>
			<rect x="1114.1" y="321" class="st5" width="71.9" height="14.1"/>
			<rect x="1113" y="412.9" class="st5" width="71.9" height="14.1"/>
		</g>
		<g>
			<path class="st5" d="M1099.5,279h-38.1c-6.5,0-11.8-5.3-11.8-11.9v-68.3c0-6.5,5.3-11.9,11.8-11.9h38.1c6.5,0,11.8,5.3,11.8,11.9
				v68.3C1111.4,273.6,1106.1,279,1099.5,279z"/>
			<rect x="1045.1" y="180" class="st5" width="71.9" height="14.1"/>
			<rect x="1044" y="271.9" class="st5" width="71.9" height="14.1"/>
		</g>
		<g>
			<path class="st5" d="M1530.5,416h-38.1c-6.5,0-11.8-5.3-11.8-11.9v-68.3c0-6.5,5.3-11.9,11.8-11.9h38.1c6.5,0,11.8,5.3,11.8,11.9
				v68.3C1542.4,410.6,1537.1,416,1530.5,416z"/>
			<rect x="1476.1" y="317" class="st5" width="71.9" height="14.1"/>
			<rect x="1475" y="408.9" class="st5" width="71.9" height="14.1"/>
		</g>
		<g>
			<path class="st5" d="M1481.5,556h-38.1c-6.5,0-11.8-5.3-11.8-11.8v-68.3c0-6.5,5.3-11.9,11.8-11.9h38.1c6.5,0,11.8,5.3,11.8,11.9
				v68.3C1493.4,550.6,1488.1,556,1481.5,556z"/>
			<rect x="1427.1" y="457" class="st5" width="71.9" height="14.1"/>
			<rect x="1426" y="548.9" class="st5" width="71.9" height="14.1"/>
		</g>
		<g>
			<path class="st5" d="M1336.5,286h-38.1c-6.5,0-11.8-5.3-11.8-11.9v-68.3c0-6.5,5.3-11.9,11.8-11.9h38.1c6.5,0,11.8,5.3,11.8,11.9
				v68.3C1348.4,280.6,1343.1,286,1336.5,286z"/>
			<rect x="1282.1" y="187" class="st5" width="71.9" height="14.1"/>
			<rect x="1281" y="278.9" class="st5" width="71.9" height="14.1"/>
		</g>
		<g>
			<path class="st5" d="M1390,893.8h-4.9c-3.3,0-5.9-2.7-5.9-5.9v-81.8c0-3.3,2.7-5.9,5.9-5.9h4.9c3.3,0,5.9,2.7,5.9,5.9v81.8
				C1396,891.2,1393.3,893.8,1390,893.8z"/>
			<rect x="1378" y="793" class="st5" width="19.5" height="14.3"/>
			<rect x="1377.7" y="886.7" class="st5" width="19.5" height="14.3"/>
		</g>
		<g>
			<path class="st5" d="M1812,893.8h-4.9c-3.3,0-5.9-2.7-5.9-5.9v-81.8c0-3.3,2.7-5.9,5.9-5.9h4.9c3.3,0,5.9,2.7,5.9,5.9v81.8
				C1818,891.2,1815.3,893.8,1812,893.8z"/>
			<rect x="1800" y="793" class="st5" width="19.5" height="14.3"/>
			<rect x="1799.7" y="886.7" class="st5" width="19.5" height="14.3"/>
		</g>
		<g>
			<path class="st5" d="M1215,726.8h-4.9c-3.3,0-5.9-2.7-5.9-5.9v-81.8c0-3.3,2.7-5.9,5.9-5.9h4.9c3.3,0,5.9,2.7,5.9,5.9v81.8
				C1221,724.2,1218.3,726.8,1215,726.8z"/>
			<rect x="1203" y="626" class="st5" width="19.5" height="14.3"/>
			<rect x="1202.7" y="719.7" class="st5" width="19.5" height="14.3"/>
		</g>
		<g>
			<path class="st5" d="M1071,556.8h-4.9c-3.3,0-5.9-2.7-5.9-5.9v-81.8c0-3.3,2.7-5.9,5.9-5.9h4.9c3.3,0,5.9,2.7,5.9,5.9v81.8
				C1077,554.2,1074.3,556.8,1071,556.8z"/>
			<rect x="1059" y="456" class="st5" width="19.5" height="14.3"/>
			<rect x="1058.7" y="549.7" class="st5" width="19.5" height="14.3"/>
		</g>
		<g>
			<path class="st5" d="M1209.9,415.2h-7c-3.3,0-5.9-2.7-5.9-5.9v-77.5c0-3.3,2.7-5.9,5.9-5.9h7c3.3,0,5.9,2.7,5.9,5.9v77.5
				C1215.8,412.5,1213.1,415.2,1209.9,415.2z"/>
			<rect x="1195.6" y="319" class="st5" width="22" height="13.7"/>
			<rect x="1195.2" y="408.3" class="st5" width="22" height="13.7"/>
		</g>
		<g>
			<path class="st4" d="M1462,279L1462,279c-3.3,0-5.9-2.7-5.9-5.9V193c0-3.3,2.7-5.9,5.9-5.9l0,0c3.3,0,5.9,2.7,5.9,5.9V273
				C1467.9,276.3,1465.3,279,1462,279z"/>
			<rect x="1455.2" y="180" class="st4" width="13.8" height="14.1"/>
			<rect x="1455" y="271.9" class="st4" width="13.8" height="14.1"/>
		</g>
		<g>
			<path class="st7" d="M1604.5,419.6h-27.1c-6.5,0-11.8-5.3-11.8-11.9v-60.4c0-6.5,5.3-11.9,11.8-11.9h27.1
				c6.5,0,11.8,5.3,11.8,11.9v60.4C1616.4,414.2,1611.1,419.6,1604.5,419.6z"/>
			<rect x="1561.9" y="329" class="st7" width="59.1" height="12.9"/>
			<rect x="1561" y="413.1" class="st7" width="59.1" height="12.9"/>
		</g>
		<g>
			<path class="st7" d="M1546.5,556.6h-27.1c-6.5,0-11.8-5.3-11.8-11.8v-60.4c0-6.5,5.3-11.9,11.8-11.9h27.1
				c6.5,0,11.8,5.3,11.8,11.9v60.4C1558.4,551.2,1553.1,556.6,1546.5,556.6z"/>
			<rect x="1503.9" y="466" class="st7" width="59.1" height="12.9"/>
			<rect x="1503" y="550.1" class="st7" width="59.1" height="12.9"/>
		</g>
		<g>
			<path class="st7" d="M1034.5,560.6h-27.1c-6.5,0-11.8-5.3-11.8-11.8v-60.4c0-6.5,5.3-11.9,11.8-11.9h27.1
				c6.5,0,11.8,5.3,11.8,11.9v60.4C1046.4,555.2,1041.1,560.6,1034.5,560.6z"/>
			<rect x="991.9" y="470" class="st7" width="59.1" height="12.9"/>
			<rect x="991" y="554.1" class="st7" width="59.1" height="12.9"/>
		</g>
		<g>
			<path class="st7" d="M1410.5,279.6h-27.1c-6.5,0-11.8-5.3-11.8-11.9v-60.4c0-6.5,5.3-11.9,11.8-11.9h27.1
				c6.5,0,11.8,5.3,11.8,11.9v60.4C1422.4,274.2,1417.1,279.6,1410.5,279.6z"/>
			<rect x="1367.9" y="189" class="st7" width="59.1" height="12.9"/>
			<rect x="1367" y="273.1" class="st7" width="59.1" height="12.9"/>
		</g>
		<g>
			<path class="st7" d="M1674.5,418.6h-27.1c-6.5,0-11.8-5.3-11.8-11.9v-60.4c0-6.5,5.3-11.9,11.8-11.9h27.1
				c6.5,0,11.8,5.3,11.8,11.9v60.4C1686.4,413.2,1681.1,418.6,1674.5,418.6z"/>
			<rect x="1631.9" y="328" class="st7" width="59.1" height="12.9"/>
			<rect x="1631" y="412.1" class="st7" width="59.1" height="12.9"/>
		</g>
		<g>
			<path class="st4" d="M1590.8,555.9h51.3c6.6,0,12-5.4,12-12v-68.8c0-6.6-5.4-12-12-12h-51.3c-6.6,0-12,5.4-12,12v68.8
				C1578.8,550.5,1584.3,555.9,1590.8,555.9z"/>
			<rect x="1572" y="456" class="st4" width="87.6" height="14.2"/>
			<rect x="1573.4" y="548.8" class="st4" width="87.6" height="14.2"/>
		</g>
		<g>
			<path class="st6" d="M973.3,560.4h-18.6c-6.5,0-11.8-5.3-11.8-11.8v-75.2c0-6.5,5.3-11.9,11.8-11.9h18.6
				c6.5,0,11.8,5.3,11.8,11.9v75.2C985.2,555.1,979.8,560.4,973.3,560.4z"/>
			<rect x="939.8" y="454" class="st6" width="49.2" height="15.1"/>
			<rect x="939" y="552.9" class="st6" width="49.2" height="15.1"/>
		</g>
		<g>
			<path class="st6" d="M1642.3,719.4h-18.6c-6.5,0-11.8-5.3-11.8-11.8v-75.2c0-6.5,5.3-11.8,11.8-11.8h18.6
				c6.5,0,11.8,5.3,11.8,11.8v75.2C1654.2,714.1,1648.8,719.4,1642.3,719.4z"/>
			<rect x="1608.8" y="613" class="st6" width="49.2" height="15.1"/>
			<rect x="1608" y="711.9" class="st6" width="49.2" height="15.1"/>
		</g>
	</g>
</g>
<g id="Layer_3">
	<path class="st9" d="M882.9,1083.8l-20.6-1.2c-6.6-0.4-11.7-6.1-11.3-12.7l54.6-906.4c0.4-6.6,6.1-11.6,12.7-11.3l20.6,1.2
		c6.6,0.4,11.7,6.1,11.3,12.7l-54.6,906.4C895.2,1079.1,889.5,1084.2,882.9,1083.8z"/>
	<path class="st9" d="M1121.5,1082.6l-20.6,1.2c-6.6,0.4-12.3-4.7-12.7-11.3l-53.1-906.4c-0.4-6.6,4.7-12.3,11.3-12.7l20.6-1.2
		c6.6-0.4,12.3,4.7,12.7,11.3l53.1,906.4C1133.2,1076.5,1128.1,1082.2,1121.5,1082.6z"/>
	<path class="st9" d="M1071.9,306H912.8c-6.6,0-12-5.4-12-12v-13c0-6.6,5.4-12,12-12h159.2c6.6,0,12,5.4,12,12v13
		C1083.9,300.6,1078.5,306,1071.9,306z"/>
	<path class="st9" d="M1071.9,421H912.8c-6.6,0-12-5.4-12-12v-13c0-6.6,5.4-12,12-12h159.2c6.6,0,12,5.4,12,12v13
		C1083.9,415.6,1078.5,421,1071.9,421z"/>
	<path class="st9" d="M1071.9,527H912.8c-6.6,0-12-5.4-12-12v-13c0-6.6,5.4-12,12-12h159.2c6.6,0,12,5.4,12,12v13
		C1083.9,521.6,1078.5,527,1071.9,527z"/>
	<path class="st9" d="M1071.9,623H912.8c-6.6,0-12-5.4-12-12v-13c0-6.6,5.4-12,12-12h159.2c6.6,0,12,5.4,12,12v13
		C1083.9,617.6,1078.5,623,1071.9,623z"/>
	<path class="st9" d="M1071.9,735H912.8c-6.6,0-12-5.4-12-12v-13c0-6.6,5.4-12,12-12h159.2c6.6,0,12,5.4,12,12v13
		C1083.9,729.6,1078.5,735,1071.9,735z"/>
	<path class="st9" d="M1071.9,825H912.8c-6.6,0-12-5.4-12-12v-13c0-6.6,5.4-12,12-12h159.2c6.6,0,12,5.4,12,12v13
		C1083.9,819.6,1078.5,825,1071.9,825z"/>
	<path class="st9" d="M1013,825H873c-6.6,0-12-5.4-12-12v-13c0-6.6,5.4-12,12-12h140c6.6,0,12,5.4,12,12v13
		C1025,819.6,1019.6,825,1013,825z"/>
	<path class="st9" d="M1089,931H894.8c-6.6,0-12-5.4-12-12v-13c0-6.6,5.4-12,12-12H1089c6.6,0,12,5.4,12,12v13
		C1101,925.6,1095.6,931,1089,931z"/>
</g>
<g id="Layer_6">
	<ellipse class="st9" cx="228.8" cy="944.2" rx="48.8" ry="48.8"/>
	<path class="st9" d="M484.6,824.6L306.3,935.1c-3.6,2.2-9.1-0.3-12.2-5.5l-24.6-41.5c-3.1-5.3-2.7-11.4,0.8-13.6L448.7,764
		c3.6-2.2,9.1,0.3,12.2,5.5l24.6,41.5C488.6,816.3,488.2,822.4,484.6,824.6z"/>
	<path class="st9" d="M270.6,802.5L270.6,802.5c-4-0.8-7.8,2.9-8.4,8.3l-4.3,37.9c-0.6,5.3,2.2,10.4,6.2,11.2l0,0
		c4,0.8,7.8-2.9,8.4-8.3l4.3-37.9C277.4,808.3,274.6,803.3,270.6,802.5z"/>
	<path class="st9" d="M263.5,825l-38.5-36.6c-3.3-3.2-4.1-9.3-1.7-13.7l1.9-3.6c2.4-4.4,7-5.4,10.3-2.3l38.5,36.6
		c3.3,3.2,4.1,9.3,1.7,13.7l-1.9,3.6C271.5,827.1,266.9,828.2,263.5,825z"/>
	<path class="st10" d="M525.2,668.1l-1-2.3c-2.1-4.7-10.2-5.5-18-1.8L430.9,700c-7.8,3.7-12.4,10.6-10.3,15.2l1,2.3
		c2.1,4.7,10.2,5.5,18,1.8l75.3-35.9C522.8,679.6,527.4,672.8,525.2,668.1z"/>
	<path class="st9" d="M433.1,704.7l7.6,49.6c0.5,3-2.4,5.9-6.3,6.5l-3.2,0.5c-3.9,0.6-7.5-1.3-7.9-4.2l-7.6-49.6
		c-0.5-3,2.4-5.9,6.3-6.5l3.2-0.5C429.1,699.9,432.6,701.8,433.1,704.7z"/>
	<path class="st9" d="M467.8,693l-0.6-1.5c-1.3-3.1-6.6-3.3-11.8-0.6l-50.8,26.3c-5.2,2.7-8.5,7.4-7.2,10.5l0.6,1.5
		c1.3,3.1,6.6,3.3,11.8,0.6l50.8-26.3C465.8,700.8,469,696.1,467.8,693z"/>
	<path class="st9" d="M403.1,723.4l5.4,38.5c0.3,2.3-1.7,4.6-4.5,5l-2.3,0.4c-2.8,0.5-5.3-1-5.6-3.3l-5.4-38.5
		c-0.3-2.3,1.7-4.6,4.5-5l2.3-0.4C400.2,719.6,402.7,721.1,403.1,723.4z"/>
</g>
</svg>
