<?xml version="1.0" encoding="utf-8"?>
<!-- Generator: Adobe Illustrator 22.1.0, SVG Export Plug-In . SVG Version: 6.00 Build 0)  -->
<svg version="1.1" xmlns="http://www.w3.org/2000/svg" xmlns:xlink="http://www.w3.org/1999/xlink" x="0px" y="0px"
	 viewBox="0 0 612 612" style="enable-background:new 0 0 612 612;" xml:space="preserve">
<style type="text/css">
	.st0{fill:#FFAC1D;}
</style>
<g id="Capa_1">
</g>
<g id="Layer_2">
	
		<image style="overflow:visible;" width="5630" height="847" xlink:href="../Downloads/ColorPalette.png"  transform="matrix(0.2119 0 0 0.1071 -449 -117)">
	</image>
	<path class="st0" d="M607.5,197.7L416.8,7c-9.3-9.3-24.3-9.3-33.6,0l-70.6,70.6L48.3,341.9h-0.1v0.1l-5.1,5.1
		c-3.6,3.6-6,8.2-6.7,13.3L2.8,584.7c-1.1,7.4,1.4,14.9,6.7,20.3c4.5,4.4,10.6,7,16.8,7c1.2,0,2.3-0.1,3.5-0.3l224.3-33.5
		c5-0.8,9.7-3.1,13.3-6.7L537,301.9l70.6-70.6C616.8,222,616.8,207,607.5,197.7z M255.7,515.9l-31.4-31.5l230.8-230.8l31.5,31.5
		L255.7,515.9z M64.6,492.5l13.1-87.4l131.8,131.7l-87.4,13L64.6,492.5z M421.5,220L190.7,450.8l-27-27L394.5,193l13.4,13.5
		L421.5,220z M329.4,128l31.6,31.5L130.1,390.3l-31.5-31.5L329.4,128z M520.2,251.5l-48.3-48.2l0,0h-0.1L441.6,173L363,94.4l37-37
		l157.1,157.1L520.2,251.5z"/>
</g>
</svg>
